<?xml version="1.0" encoding="UTF-8" standalone="no"?>
<svg
   version="1.1"
   width="445.4201"
   height="452.72513"
   viewBox="0 -22.874534 445.42012 452.72514"
   id="svg1030"
   sodipodi:docname="Black logo only.svg"
   inkscape:version="1.1 (c68e22c387, 2021-05-23)"
   xmlns:inkscape="http://www.inkscape.org/namespaces/inkscape"
   xmlns:sodipodi="http://sodipodi.sourceforge.net/DTD/sodipodi-0.dtd"
   xmlns="http://www.w3.org/2000/svg"
   xmlns:svg="http://www.w3.org/2000/svg">
  <defs
     id="defs1034" />
  <sodipodi:namedview
     id="namedview1032"
     pagecolor="#ffffff"
     bordercolor="#666666"
     borderopacity="1.0"
     inkscape:pageshadow="2"
     inkscape:pageopacity="0.0"
     inkscape:pagecheckerboard="0"
     showgrid="false"
     fit-margin-top="0"
     fit-margin-left="0"
     fit-margin-right="0"
     fit-margin-bottom="0"
     inkscape:zoom="0.35939767"
     inkscape:cx="1501.1227"
     inkscape:cy="237.89804"
     inkscape:window-width="1920"
     inkscape:window-height="1017"
     inkscape:window-x="-8"
     inkscape:window-y="-8"
     inkscape:window-maximized="1"
     inkscape:current-layer="g1028" />
  <g
     transform="matrix(7.6248446,0,0,7.6248446,-2.231777e-6,8.8874824e-8)"
     id="g1028">
    <defs
       id="SvgjsDefs1051" />
    <g
       id="SvgjsG1052"
       featureKey="symbolContainer"
       transform="matrix(0.31402189,0,0,0.31402189,1.0975744e-4,-2.9999458)"
       fill="#000000">
      <path
         d="m 17.914,148.907 z m 4.743,6.033 a 90.586,90.586 0 0 0 5.861,6.251 c 6.914,6.805 15.159,12.525 24.004,16.851 3.259,1.526 6.265,3.107 9.787,4.468 0.88,0.338 1.779,0.7 2.724,1.026 0.953,0.302 1.941,0.604 2.974,0.903 1.027,0.321 2.122,0.549 3.267,0.786 1.146,0.23 2.336,0.493 3.614,0.624 a 91.24,91.24 0 0 1 -18.434,-5.99 93.833,93.833 0 0 1 -16.873,-9.842 c -10.548,-7.727 -19.57,-17.648 -26.16,-28.989 -0.272,-0.339 -0.685,-0.985 -1.18,-1.808 l -0.796,-1.348 -0.803,-1.551 c -0.534,-1.076 -1.149,-2.168 -1.62,-3.226 a 71.281,71.281 0 0 0 -1.326,-2.748 c 2.048,5.101 4.412,9.563 7.059,13.806 a 93.473,93.473 0 0 0 3.869,5.697 c -0.192,-0.259 -0.392,-0.511 -0.583,-0.771 a 95.012,95.012 0 0 0 4.6,5.841 z m -4.618,-5.862 -0.125,-0.17 z M 1.335,106.042 0.852,102.167 c 0.256,2.365 0.553,5.008 1.096,7.654 l -0.327,-1.879 a 23.961,23.961 0 0 1 -0.286,-1.9 z m 84.477,79.533 c 6.652,0.673 13.628,0.472 20.461,-0.609 6.837,-1.077 13.524,-2.987 19.741,-5.449 -11.45,4.503 -23.602,6.506 -35.49,6.171 -1.591,-0.025 -3.159,0 -4.712,-0.113 z"
         id="path1002" />
      <path
         d="m 46.426,171.967 -0.259,-0.165 c 0.087,0.055 0.172,0.111 0.259,0.165 z m -0.259,-0.165 z m -2.514,-1.667 z m 12.424,7.149 A 83.837,83.837 0 0 0 73.2,183.1 c -9.688,-2.21 -18.805,-6.109 -26.774,-11.133 3.06,1.947 6.277,3.749 9.651,5.317 z m 120.925,-70.19 c 0.098,-1.58 0.296,-3.238 0.346,-4.027 0.594,-5.071 0.77,-9.401 0.745,-13.745 -0.11,-0.783 -0.425,-2.25 -0.55,-3.918 -0.153,-1.672 -0.378,-3.309 -0.568,-4.924 -0.289,-1.601 -0.538,-3.186 -0.854,-4.74 2.275,11.617 2.237,23.279 0.144,34.282 a 94.97,94.97 0 0 1 0.737,-2.928 z"
         id="path1004" />
      <path
         d="m 0.887,83.482 c 0.848,-6.9 2.653,-13.626 4.37,-18.107 l -0.695,3.28 c 0.429,-0.961 1.122,-3.194 2.067,-5.557 l 0.682,-1.802 0.753,-1.747 c 0.5,-1.131 0.92,-2.203 1.363,-3.025 C 9.124,57.295 8.832,58.126 8.48,58.96 8.135,59.797 7.748,60.647 7.379,61.502 L 8.893,58.093 A 111.863,111.863 0 0 0 4.954,69.8 c -1.133,4.352 -2.029,8.926 -2.511,13.032 -0.14,1.024 -0.189,2.024 -0.28,2.978 -0.067,0.954 -0.183,1.864 -0.192,2.724 -0.042,1.719 -0.1,3.224 -0.071,4.428 0.105,2.409 0.25,3.61 0.459,2.939 0.411,-1.333 0.403,-8.188 1.837,-16.767 0.767,-4.276 1.868,-8.966 3.362,-13.561 1.483,-4.599 3.427,-9.058 5.44,-12.992 l -0.592,1.292 -0.545,1.331 -1.116,2.691 -1.024,2.78 L 9.2,62.077 C 9.047,62.553 8.892,63.031 8.739,63.511 7.419,67.318 6.432,71.327 5.572,75.368 L 5.013,78.42 C 4.808,79.434 4.721,80.466 4.569,81.487 4.251,83.528 4.135,85.584 3.958,87.616 3.759,91.69 3.719,95.714 4.088,99.562 4.073,98.648 4.058,97.836 4.071,97.05 l 0.115,-2.355 c 0.048,-0.809 0.039,-1.667 0.115,-2.65 0.07,-0.983 0.134,-2.091 0.19,-3.402 0.391,-6.608 1.572,-13.15 3.408,-19.481 1.75,-6.358 3.814,-11.957 6.889,-17.03 l 0.801,-1.526 c 0.542,-1.024 0.993,-2.034 1.566,-3.064 0.653,-1.13 1.278,-1.976 1.784,-2.751 0.521,-0.767 0.963,-1.441 1.469,-2.095 l 3.682,-5.082 c 0.075,-0.009 -0.022,0.185 -0.2,0.473 a 28.962,28.962 0 0 1 1.959,-2.49 c 0.755,-0.875 1.488,-1.803 2.109,-2.569 0.146,-0.007 0.288,-0.011 0.623,-0.251 8.65,-9.197 19.295,-16.692 31.291,-21.417 l 2.667,-1.039 2.7,-0.899 1.343,-0.448 1.36,-0.38 2.71,-0.753 C 72.202,7.468 73.772,7.09 75.373,6.75 L 77.81,6.324 c 0.819,-0.141 1.642,-0.3 2.484,-0.378 1.674,-0.201 3.134,-0.625 3.921,-0.729 4.369,-0.249 8.73,-0.199 13.849,0.216 0.397,0.007 1.015,0.043 1.732,0.082 0.717,0.041 1.537,0.061 2.332,0.134 0.932,0.21 1.927,0.418 2.971,0.621 6.369,0.988 12.527,2.754 18.386,5.103 l -0.007,-0.028 2.244,0.894 2.29,1.058 c 1.571,0.684 3.11,1.559 4.7,2.383 0.798,0.407 1.554,0.904 2.338,1.354 0.77,0.474 1.576,0.894 2.32,1.412 1.508,1.002 3.037,1.961 4.446,3.032 a 99.912,99.912 0 0 1 6.6,5.198 c 0.046,0.042 0.094,0.081 0.14,0.122 l 0.042,0.038 1.457,1.322 1.394,1.391 1.395,1.392 c 0.462,0.467 0.89,0.967 1.337,1.449 -0.216,-0.35 -0.208,-0.491 -0.2,-0.63 -0.689,-0.66 -1.504,-1.441 -2.309,-2.21 1.343,1.222 2.515,2.327 3.477,3.229 0.371,0.474 0.776,0.94 1.16,1.449 l 1.186,1.566 1.261,1.629 1.255,1.752 c 2.226,2.838 4.191,5.874 6.057,8.97 0.864,1.588 1.817,3.131 2.586,4.774 l 1.213,2.436 1.092,2.497 c 0.314,0.533 0.192,0.022 0.231,-0.068 1.225,2.962 2.21,6.042 3.102,9.146 a 88.212,88.212 0 0 1 3.408,17.211 c 0.225,1.378 0.321,2.772 0.52,4.153 l -0.123,2.924 c -0.001,1.103 0.057,2.206 0.01,3.311 l -0.128,3.326 c -0.016,0.75 -0.124,1.569 -0.187,2.459 -0.084,0.888 -0.128,1.846 -0.256,2.856 l -0.412,3.192 c -0.132,1.119 -0.387,2.269 -0.583,3.471 a 90.635,90.635 0 0 1 -4.312,15.482 c -0.242,0.826 -0.427,1.486 -0.592,1.855 -0.627,1.501 -1.296,2.954 -1.942,4.385 -0.723,1.394 -1.386,2.788 -2.127,4.108 a 86.09,86.09 0 0 1 -7.949,12.379 c -0.336,0.439 -0.649,0.885 -0.987,1.297 l -0.998,1.206 c -0.66,0.779 -1.25,1.558 -1.876,2.234 -1.251,1.352 -2.301,2.606 -3.286,3.549 -1.128,1.178 -1.027,1.233 -0.246,0.665 a 35.07,35.07 0 0 0 1.608,-1.262 l 2.122,-1.914 c 0.776,-0.677 1.519,-1.441 2.235,-2.161 0.708,-0.725 1.416,-1.386 1.962,-1.984 1.101,-1.191 1.824,-1.926 1.67,-1.599 -1.777,3.345 -5.013,7.471 -9.743,12.035 -2.413,2.227 -5.128,4.647 -8.339,6.98 -1.566,1.221 -3.307,2.338 -5.082,3.558 -1.834,1.123 -3.708,2.353 -5.757,3.445 -4.484,2.442 3.365,-1.475 3.577,-1.512 a 22.87,22.87 0 0 1 -2.377,1.64 c -1.478,0.786 -2.943,1.597 -4.474,2.273 -0.895,0.411 -1.774,0.855 -2.679,1.239 l -2.729,1.122 1.444,-0.568 c 2.952,-1.173 5.711,-2.555 8.202,-3.922 -0.936,0.566 -1.96,1.221 -3.082,1.812 -1.203,0.622 -2.448,1.302 -3.697,1.909 l -3.625,1.686 c 12.968,-4.711 24.885,-12.507 34.319,-22.67 4.723,-5.066 8.935,-10.631 12.369,-16.651 a 93.904,93.904 0 0 0 8.288,-18.999 c -3.154,9.93 -8.071,19.052 -13.981,26.765 10.744,-14.507 17.15,-32.293 17.999,-50.636 -10e-4,1.011 -0.101,2.018 -0.168,3.025 -0.083,1.007 -0.123,2.018 -0.241,3.022 -0.257,2.005 -0.441,4.021 -0.827,6.009 -0.624,4 -1.636,7.931 -2.782,11.815 2.262,-7.021 3.613,-14.424 4.145,-21.869 0.554,-7.451 0.092,-14.947 -1.057,-22.211 1.974,9.622 2.301,20.524 0.619,31.298 1.182,-6.949 1.482,-14.112 1.028,-21.214 -0.102,-2.713 -0.422,-5.407 -0.685,-7.901 -0.377,-2.476 -0.662,-4.762 -1.027,-6.611 1.445,6.826 2.015,12.648 2.293,18.136 -0.267,-11.977 -2.748,-24.112 -7.62,-35.511 2.659,6.191 4.842,12.851 6.175,19.698 1.34,6.84 1.897,13.838 1.58,20.57 -0.015,-0.788 0.018,-1.575 -0.028,-2.366 l -0.107,-2.391 c 0.287,10.85 -1.384,21.604 -4.696,31.717 -1.662,5.056 -3.715,9.969 -6.2,14.644 a 95.521,95.521 0 0 1 -8.56,13.316 c 3.673,-4.29 7.551,-10.354 10.646,-17.015 3.081,-6.675 5.368,-13.894 6.941,-20.199 -2.314,11.322 -6.907,22.494 -13.571,32.471 -6.646,9.985 -15.351,18.764 -25.423,25.502 -10.06,6.759 -21.474,11.437 -33.187,13.748 a 94.608,94.608 0 0 1 -17.657,1.809 94.462,94.462 0 0 1 -17.361,-1.515 l 3.005,0.571 c 1.002,0.19 2.018,0.295 3.026,0.445 2.016,0.324 4.055,0.446 6.087,0.633 4.073,0.229 8.168,0.306 12.25,-0.005 4.089,-0.217 8.152,-0.827 12.196,-1.572 2.006,-0.456 4.036,-0.829 6.017,-1.414 0.994,-0.278 2,-0.521 2.987,-0.83 l 2.955,-0.958 c -1.492,0.462 -3.062,1.074 -4.739,1.523 l -2.101,0.618 a 91.772,91.772 0 0 0 12.91,-4.496 89.46,89.46 0 0 0 5.651,-2.705 96.653,96.653 0 0 1 -10.714,4.872 98.407,98.407 0 0 1 -21.66,5.382 c -1.11,0.176 -2.122,0.231 -3.029,0.326 l -2.428,0.24 c -1.429,0.113 -2.484,0.164 -3.222,0.245 -1.477,0.147 -1.687,0.284 -1.099,0.397 0.587,0.113 1.971,0.203 3.673,0.251 1.697,-0.01 3.71,-0.101 5.541,-0.268 18.397,-1.887 35.288,-9.107 48.824,-19.916 13.545,-10.811 23.919,-25.172 29.701,-41.467 0.363,-0.946 0.642,-1.922 0.944,-2.89 0.293,-0.971 0.617,-1.932 0.882,-2.912 0.491,-1.97 1.072,-3.917 1.448,-5.917 l 0.619,-2.985 0.487,-3.012 0.241,-1.507 0.172,-1.517 0.342,-3.034 c 0.698,-8.114 0.422,-16.315 -0.812,-24.363 -0.66,-4.554 -1.82,-9.961 -3.315,-14.777 l -1.15,-3.484 c -0.4,-1.107 -0.825,-2.151 -1.203,-3.133 l -0.557,-1.415 -0.571,-1.271 -0.981,-2.124 C 173.929,46.728 169.991,40.663 165.381,35.022 160.776,29.379 155.485,24.154 149.52,19.604 l -2.244,-1.703 -2.327,-1.608 -1.166,-0.806 -1.203,-0.756 -2.417,-1.508 c -3.295,-1.904 -6.67,-3.739 -10.228,-5.261 -3.521,-1.598 -7.206,-2.895 -10.957,-4.055 -1.895,-0.52 -3.781,-1.1 -5.724,-1.499 -0.968,-0.209 -1.928,-0.463 -2.907,-0.638 L 107.403,1.249 C 100.363,0.01 93.04,-0.285 85.724,0.265 78.412,0.83 71.069,2.218 64.028,4.614 l -2.635,0.913 c -0.881,0.297 -1.73,0.682 -2.597,1.019 -0.858,0.359 -1.735,0.673 -2.577,1.069 l -2.532,1.173 c -0.852,0.376 -1.675,0.808 -2.496,1.245 l -2.469,1.297 -2.402,1.412 c -0.8,0.472 -1.606,0.933 -2.372,1.458 l -2.324,1.528 c -0.782,0.497 -1.506,1.078 -2.261,1.612 -0.741,0.554 -1.51,1.07 -2.226,1.654 l -2.157,1.737 c -0.729,0.565 -1.417,1.178 -2.103,1.792 l -2.063,1.83 -1.971,1.919 c -0.656,0.639 -1.319,1.271 -1.93,1.951 -5.031,5.298 -9.451,11.078 -13.066,17.194 A 99.518,99.518 0 0 0 5.18,64.379 C 0.805,77.299 -0.45,90.402 0.134,102.237 0.008,97.365 -0.013,90.378 0.887,83.482 Z m 141.132,90.446 a 96.807,96.807 0 0 0 8.765,-6.389 c -2.84,2.339 -5.758,4.499 -8.765,6.389 z m 40.217,-54.282 c -0.299,0.901 -0.552,1.791 -0.882,2.641 l -0.957,2.523 -0.466,1.248 -0.513,1.231 a 108.54,108.54 0 0 0 -0.997,2.501 97.307,97.307 0 0 1 -6.587,13.35 c -2.521,4.275 -5.443,8.281 -8.565,12.04 -1.542,1.899 -3.222,3.66 -4.874,5.421 l -2.581,2.523 c -0.847,0.848 -1.774,1.604 -2.652,2.404 -0.736,0.64 -1.478,1.266 -2.225,1.882 a 90.696,90.696 0 0 0 7.896,-7.312 89.808,89.808 0 0 1 -11.689,10.188 c -1.036,0.722 -2.037,1.496 -3.113,2.176 l -3.247,2.069 -3.43,1.949 c -1.167,0.648 -2.399,1.224 -3.634,1.855 a 74.206,74.206 0 0 1 2.685,-1.508 c 1.021,-0.567 2.092,-1.237 3.138,-1.85 1.054,-0.601 2.012,-1.261 2.808,-1.813 0.796,-0.552 1.42,-1.01 1.745,-1.306 -0.464,0.315 -0.936,0.617 -1.406,0.924 a 92.477,92.477 0 0 0 1.507,-1.015 c -0.021,0.023 -0.065,0.059 -0.101,0.091 10.932,-7.466 20.245,-17.277 27.223,-28.462 7.009,-11.175 11.57,-23.781 13.46,-36.601 -0.41,5.142 -1.352,9.248 -2.543,12.851 z m -6.654,-65.352 z m -8.448,-12.698 a 92.37,92.37 0 0 1 7.773,14.352 c 0.25,0.549 0.486,1.106 0.719,1.664 4.963,12.154 7.221,25.192 6.89,38.036 0.084,-4.25 -0.198,-8.498 -0.669,-12.71 -0.533,-4.854 -1.518,-9.65 -2.824,-14.341 -2.562,-9.407 -6.723,-18.323 -12.005,-26.451 0.485,0.67 0.996,1.396 1.525,2.166 a 32.826,32.826 0 0 1 1.59,2.463 l -0.638,-1.109 -0.689,-1.079 -1.378,-2.156 c -0.938,-1.424 -1.955,-2.796 -2.934,-4.192 -1.062,-1.334 -2.069,-2.712 -3.174,-4.011 -0.836,-0.953 -1.637,-1.938 -2.485,-2.879 2.992,3.155 5.801,6.54 8.299,10.247 z M 96.886,1.152 c 1.467,0.078 2.937,0.221 4.407,0.331 1.204,0.101 2.402,0.279 3.588,0.413 0.356,0.015 0.732,0.039 1.204,0.092 0.471,0.065 1.034,0.186 1.769,0.354 5.469,0.912 10.459,2.283 14.001,3.699 6.798,2.573 13.123,5.774 18.86,9.471 5.739,3.69 10.889,7.887 15.246,12.471 2.008,2.179 1.422,1.704 0.315,0.646 l 1.662,1.764 c -0.736,-0.734 -1.459,-1.478 -2.206,-2.196 l -2.301,-2.09 c 0.56,0.49 1.918,1.663 2.845,2.522 C 148.887,21.09 140.25,14.83 130.901,10.225 121.545,5.622 111.47,2.779 101.399,1.644 c 1.618,0.18 2.412,0.22 3.168,0.24 C 103.482,1.757 102.394,1.583 101.293,1.483 99.814,1.386 98.338,1.254 96.87,1.182 L 92.51,1.079 c 1.444,-10e-4 2.907,0.039 4.376,0.073 z"
         id="path1006" />
      <path
         d="m 115.942,184.69 0.426,-0.125 c -0.446,0.12 -0.885,0.252 -1.334,0.366 0.304,-0.076 0.609,-0.15 0.908,-0.241 z m 44.482,-38.539 c 4.235,-5.587 7.977,-12.263 10.366,-18.014 l -0.029,0.006 c -6.061,14.322 -15.892,26.66 -28.16,35.744 a 159.12,159.12 0 0 0 6.418,-4.703 c 2.698,-2.82 7.213,-7.406 11.405,-13.033 z M 35.35,162.846 c 7.172,6.412 15.821,11.992 25.448,15.751 3.754,1.413 7.585,2.651 11.503,3.523 1.944,0.502 3.929,0.812 5.899,1.181 0.987,0.175 1.987,0.272 2.979,0.412 0.994,0.129 1.986,0.275 2.987,0.333 -4.519,-0.501 -9.005,-1.251 -13.372,-2.44 -4.364,-1.185 -8.642,-2.65 -12.769,-4.449 a 97.4,97.4 0 0 1 -11.894,-6.314 c -3.786,-2.408 -7.376,-5.097 -10.781,-7.997 z m 88.527,11.431 -2.219,0.871 -2.266,0.756 c -1.5,0.54 -3.047,0.944 -4.59,1.373 1.551,-0.39 3.111,-0.754 4.624,-1.254 l 2.283,-0.698 2.23,-0.815 c -0.086,-0.044 -0.594,0.055 -0.062,-0.233 z m -26.194,5.688 c -1.16,0.099 -2.326,0.09 -3.494,0.102 -1.168,0.014 -2.338,0.039 -3.509,-0.038 l 1.576,0.148 c 0.482,0.031 0.916,0.068 1.295,0.113 1.381,-0.118 2.752,-0.151 4.132,-0.325 z M 51.441,169.209 c 1.341,0.787 2.765,1.48 4.178,2.244 0.354,0.194 0.996,0.415 1.801,0.709 -1.721,-0.739 -3.37,-1.655 -5.046,-2.505 -0.83,-0.441 -1.629,-0.935 -2.443,-1.395 -0.812,-0.464 -1.621,-0.927 -2.389,-1.445 l 0.937,0.626 0.977,0.584 z"
         id="path1008" />
    </g>
    <g
       id="SvgjsG1053"
       featureKey="symbolFeature-0"
       transform="matrix(0.61694943,0,0,0.61694943,9.5322023,7.3814972)"
       fill="#000000">
      <g
         id="g1019">
        <path
           d="M 59.946,26.279 C 59.105,12.738 48.262,1.895 34.721,1.054 20.399,0.177 7.854,10.603 6.186,24.82 c -0.252,2.149 0.479,4.259 2.007,5.786 0.951,0.951 1.187,2.399 0.585,3.603 L 4.338,43.09 C 4.116,43.531 4,44.024 4,44.517 4,45.829 4.787,46.992 6.006,47.48 L 9,48.677 V 63 h 10 c 4.963,0 9,-4.037 9,-9 V 25.425 C 28,24.64 28.64,24 29.425,24 h 0.756 l 0.206,-0.728 c 0.215,-0.758 0.513,-1.479 0.885,-2.144 l 0.369,-0.66 -1.54,-1.54 2.828,-2.828 1.54,1.54 0.66,-0.369 c 0.664,-0.372 1.386,-0.67 2.144,-0.885 L 38,16.181 V 14 h 4 v 2.181 l 0.728,0.206 c 0.758,0.215 1.479,0.513 2.144,0.885 l 0.66,0.369 1.54,-1.54 2.828,2.828 -1.54,1.54 0.369,0.66 c 0.372,0.664 0.67,1.386 0.885,2.144 L 49.819,24 H 52 v 4 h -2.181 l -0.206,0.728 c -0.215,0.758 -0.513,1.479 -0.885,2.144 l -0.369,0.66 1.54,1.54 -2.828,2.828 -1.54,-1.54 -0.66,0.369 c -0.664,0.372 -1.386,0.67 -2.144,0.885 L 42,35.819 V 38 H 38 V 35.819 L 37.272,35.613 C 36.514,35.398 35.793,35.1 35.128,34.728 l -0.66,-0.369 -2.247,2.247 1.414,1.414 1.195,-1.195 c 0.379,0.18 0.769,0.341 1.169,0.481 V 40 h 8 v -2.693 c 0.4,-0.141 0.79,-0.302 1.169,-0.481 l 1.902,1.902 5.656,-5.656 -1.902,-1.902 c 0.18,-0.379 0.341,-0.769 0.481,-1.169 H 54 v -8 h -2.693 c -0.141,-0.4 -0.302,-0.79 -0.481,-1.169 L 52.728,18.93 47.072,13.274 45.17,15.176 C 44.79,14.995 44.4,14.834 44,14.693 V 12 h -8 v 2.693 c -0.4,0.141 -0.79,0.302 -1.169,0.481 l -1.902,-1.902 -5.656,5.656 1.902,1.902 c -0.192,0.405 -0.363,0.824 -0.511,1.254 C 27.141,22.433 26,23.798 26,25.425 V 54 c 0,3.859 -3.141,7 -7,7 H 11 V 47.323 L 6.748,45.622 C 6.294,45.44 6,45.006 6,44.517 6,44.333 6.044,44.15 6.126,43.985 l 4.44,-8.881 c 0.987,-1.975 0.602,-4.35 -0.96,-5.911 C 8.514,28.1 7.991,26.592 8.171,25.053 9.717,11.891 21.328,2.216 34.598,3.05 47.133,3.828 57.172,13.867 57.95,26.402 58.384,33.391 55.994,40.038 51.221,45.117 46.443,50.2 39.973,53 33,53 h -3 v 2 h 3 c 7.421,0 14.594,-3.103 19.679,-8.513 5.155,-5.486 7.736,-12.663 7.267,-20.208 z"
           id="path1011" />
        <path
           d="m 40,32 c 3.309,0 6,-2.691 6,-6 0,-3.309 -2.691,-6 -6,-6 -3.309,0 -6,2.691 -6,6 0,3.309 2.691,6 6,6 z m 0,-10 c 2.206,0 4,1.794 4,4 0,2.206 -1.794,4 -4,4 -2.206,0 -4,-1.794 -4,-4 0,-2.206 1.794,-4 4,-4 z"
           id="path1013" />
        <rect
           x="39"
           y="42"
           width="2"
           height="2"
           id="rect1015" />
        <rect
           x="39"
           y="46"
           width="2"
           height="2"
           id="rect1017" />
      </g>
    </g>
  </g>
</svg>
